<svg width="24" height="24" viewBox="0 0 24 24" fill="none" xmlns="http://www.w3.org/2000/svg">
<rect width="24" height="24" fill="#353535"/>
<g id="Shop" filter="url(#filter0_d_6854_35)">
<rect x="-108" y="-188" width="880" height="373" rx="24" fill="white"/>
<g id="vuesax/linear/bag">
<g id="vuesax/linear/bag_2">
<g id="bag">
<path id="Vector" d="M8.80994 2L5.18994 5.63" stroke="#292D32" stroke-width="1.5" stroke-miterlimit="10" stroke-linecap="round" stroke-linejoin="round"/>
<path id="Vector_2" d="M15.1899 2L18.8099 5.63" stroke="#292D32" stroke-width="1.5" stroke-miterlimit="10" stroke-linecap="round" stroke-linejoin="round"/>
<path id="Vector_3" d="M2 7.84998C2 5.99998 2.99 5.84998 4.22 5.84998H19.78C21.01 5.84998 22 5.99998 22 7.84998C22 9.99998 21.01 9.84998 19.78 9.84998H4.22C2.99 9.84998 2 9.99998 2 7.84998Z" stroke="#292D32" stroke-width="1.5"/>
<path id="Vector_4" d="M9.75977 14V17.55" stroke="#292D32" stroke-width="1.5" stroke-linecap="round"/>
<path id="Vector_5" d="M14.3599 14V17.55" stroke="#292D32" stroke-width="1.5" stroke-linecap="round"/>
<path id="Vector_6" d="M3.5 10L4.91 18.64C5.23 20.58 6 22 8.86 22H14.89C18 22 18.46 20.64 18.82 18.76L20.5 10" stroke="#292D32" stroke-width="1.5" stroke-linecap="round"/>
</g>
</g>
</g>
</g>
<defs>
<filter id="filter0_d_6854_35" x="-156" y="-232" width="976" height="469" filterUnits="userSpaceOnUse" color-interpolation-filters="sRGB">
<feFlood flood-opacity="0" result="BackgroundImageFix"/>
<feColorMatrix in="SourceAlpha" type="matrix" values="0 0 0 0 0 0 0 0 0 0 0 0 0 0 0 0 0 0 127 0" result="hardAlpha"/>
<feOffset dy="4"/>
<feGaussianBlur stdDeviation="24"/>
<feColorMatrix type="matrix" values="0 0 0 0 0 0 0 0 0 0 0 0 0 0 0 0 0 0 0.02 0"/>
<feBlend mode="normal" in2="BackgroundImageFix" result="effect1_dropShadow_6854_35"/>
<feBlend mode="normal" in="SourceGraphic" in2="effect1_dropShadow_6854_35" result="shape"/>
</filter>
</defs>
</svg>
