<svg width="24" height="24" viewBox="0 0 24 24" fill="none" xmlns="http://www.w3.org/2000/svg">
<rect width="24" height="24" fill="#353535"/>
<g id="Design, Tools" filter="url(#filter0_d_6854_35)">
<rect x="-490" y="-254" width="880" height="557" rx="24" fill="white"/>
<g id="vuesax/linear/path">
<g id="vuesax/linear/path_2">
<g id="path" clip-path="url(#clip0_6854_35)">
<path id="Vector" d="M19.7901 7.27003L16.7601 4.24003C15.6101 3.09003 14.0401 3.15003 13.2701 4.38003L11.5801 7.05003L16.9801 12.45L19.6501 10.76C20.8001 10.03 20.8701 8.35003 19.7901 7.27003Z" stroke="#292D32" stroke-width="1.5" stroke-linecap="round" stroke-linejoin="round"/>
<path id="Vector_2" d="M11.58 7.05002L7.64999 6.81002C5.45999 6.68002 4.68999 7.35002 4.44999 9.44002L3.46999 17.76C3.25999 19.51 4.52999 20.77 6.26999 20.56L14.59 19.58C16.68 19.33 17.44 18.57 17.22 16.38L16.99 12.45" stroke="#292D32" stroke-width="1.5" stroke-linecap="round" stroke-linejoin="round"/>
<path id="Vector_3" d="M4.60986 19.42L7.63986 16.38" stroke="#292D32" stroke-width="1.5" stroke-linecap="round" stroke-linejoin="round"/>
</g>
</g>
</g>
</g>
<defs>
<filter id="filter0_d_6854_35" x="-538" y="-298" width="976" height="653" filterUnits="userSpaceOnUse" color-interpolation-filters="sRGB">
<feFlood flood-opacity="0" result="BackgroundImageFix"/>
<feColorMatrix in="SourceAlpha" type="matrix" values="0 0 0 0 0 0 0 0 0 0 0 0 0 0 0 0 0 0 127 0" result="hardAlpha"/>
<feOffset dy="4"/>
<feGaussianBlur stdDeviation="24"/>
<feColorMatrix type="matrix" values="0 0 0 0 0 0 0 0 0 0 0 0 0 0 0 0 0 0 0.02 0"/>
<feBlend mode="normal" in2="BackgroundImageFix" result="effect1_dropShadow_6854_35"/>
<feBlend mode="normal" in="SourceGraphic" in2="effect1_dropShadow_6854_35" result="shape"/>
</filter>
<clipPath id="clip0_6854_35">
<rect width="24" height="24" fill="white"/>
</clipPath>
</defs>
</svg>
